<?xml version="1.0" encoding="UTF-8"?>
<svg width="30px" height="30px" viewBox="0 0 30 30" version="1.1" xmlns="http://www.w3.org/2000/svg" xmlns:xlink="http://www.w3.org/1999/xlink">
    <title>Pure Gym Badge</title>
    <g id="Sandbox" stroke="none" stroke-width="1" fill="none" fill-rule="evenodd">
        <g id="Directory" transform="translate(-648.000000, -839.000000)">
            <g id="Pure-Gym-Badge" transform="translate(648.000000, 839.000000)">
                <rect id="Rectangle" fill="#00999D" x="0" y="0" width="30" height="30" rx="6.00083016"></rect>
                <g id="puregym-vector-logo" transform="translate(9.000000, 6.000000)" fill="#FFFFFF" fill-rule="nonzero">
                    <path d="M7.38998661,1.03970268 L5.32269786,1.03970268 C4.02230655,1.03970268 2.84195136,1.50253807 2.07505392,2.31417694 C1.33483117,3.09227701 0.974722809,4.17893401 0.994728829,5.52719362 L0.994728829,13.5228426 C0.994728829,16.9907542 1.94834912,17.4737128 2.97532482,17.4737128 C4.16901736,17.4737128 4.57580644,16.4876722 4.92257745,15.3875997 L4.94258347,15.3272299 C5.72281826,12.87219 7.10323365,11.4702683 9.5706428,10.6385062 C10.9243835,10.1823785 11.6712749,9.41098622 11.7180363,6.64068165 L11.7180363,5.4802393 C11.7246243,4.18564177 11.3178352,3.0453227 10.5709438,2.26051487 C9.81071504,1.45558376 8.71038394,1.03970268 7.38998661,1.03970268 M2.97532482,18.5 C0.00109649471,18.5 0.00109649471,15.0119652 0.00109649471,13.5161349 L0.00109649471,5.53390138 C-0.0255781988,3.90391588 0.434560265,2.56907179 1.36817454,1.58303118 C2.32179483,0.576867295 3.76222828,0 5.32269786,0 L7.38998661,0 C8.98379954,0 10.3308716,0.523205221 11.2778232,1.51595359 C12.2114375,2.49528644 12.7249253,3.89720812 12.711588,5.46682379 L12.711588,6.63397389 C12.6582386,9.54514141 11.8646664,10.9403553 9.87740178,11.6044235 C7.69674558,12.3355693 6.57640845,13.4691806 5.88953509,15.629079 L5.86952907,15.6894489 C5.58277612,16.6084119 4.98259551,18.5 2.97532482,18.5" id="Shape"></path>
                    <path d="M9.75069698,17.9969181 C10.9777329,17.9969181 11.9713652,16.9974619 11.9713652,15.7632342 C11.9713652,14.5290065 10.9777329,13.5295504 9.75069698,13.5295504 C8.52366108,13.5295504 7.53002875,14.5290065 7.53002875,15.7632342 C7.53002875,16.9974619 8.52366108,17.9969181 9.75069698,17.9969181" id="Path"></path>
                </g>
            </g>
        </g>
    </g>
</svg>